<?xml version="1.0" encoding="UTF-8"?>
<svg xmlns="http://www.w3.org/2000/svg" width="832" height="562" viewBox="0 0 832 562" style="max-width: 832px; width: 100%; height: auto;" role="img">
  <rect width="100%" height="100%" rx="14" fill="#030509"/>
  <rect x="0.5" y="0.5" width="831" height="561" rx="14" fill="none" stroke="#1b1e26" stroke-width="1"/>
  <text x="416" y="23" text-anchor="middle" font-family='ui-monospace, "Cascadia Mono", "SF Mono", Menlo, Consolas, "DejaVu Sans Mono", monospace' font-size="13" fill="#7a8090">ethagent</text>
  <g font-family='ui-monospace, "Cascadia Mono", "SF Mono", Menlo, Consolas, "DejaVu Sans Mono", monospace' font-size="16" fill="#dadce6">
    <rect x="262.4" y="68" width="10.1" height="22" fill="#9aa0b0"/>
    <rect x="272" y="68" width="10.1" height="11" fill="#9aa0b0"/>
    <rect x="281.6" y="68" width="10.1" height="11" fill="#9aa0b0"/>
    <rect x="300.8" y="68" width="10.1" height="11" fill="#9aa0b0"/>
    <rect x="310.4" y="68" width="10.1" height="22" fill="#9aa0b0"/>
    <rect x="320" y="68" width="10.1" height="11" fill="#9aa0b0"/>
    <rect x="339.2" y="68" width="10.1" height="22" fill="#9aa0b0"/>
    <rect x="358.4" y="68" width="10.1" height="22" fill="#9aa0b0"/>
    <rect x="377.6" y="79" width="10.1" height="11" fill="#f3d8e0"/>
    <rect x="387.2" y="68" width="10.1" height="11" fill="#f3dada"/>
    <rect x="396.8" y="68" width="10.1" height="22" fill="#f3dcd5"/>
    <rect x="416" y="68" width="10.1" height="22" fill="#f3e2cd"/>
    <rect x="425.6" y="68" width="10.1" height="11" fill="#f2e7cc"/>
    <rect x="435.2" y="68" width="10.1" height="11" fill="#f2ebca"/>
    <rect x="454.4" y="68" width="10.1" height="22" fill="#e4edd2"/>
    <rect x="464" y="68" width="10.1" height="11" fill="#dbedd7"/>
    <rect x="473.6" y="68" width="10.1" height="11" fill="#d6ecde"/>
    <rect x="492.8" y="68" width="10.1" height="22" fill="#d3e7ee"/>
    <rect x="502.4" y="79" width="10.1" height="11" fill="#d4e3f3"/>
    <rect x="521.6" y="68" width="10.1" height="22" fill="#dedaf1"/>
    <rect x="540.8" y="68" width="10.1" height="11" fill="#e8d7ea"/>
    <rect x="550.4" y="68" width="10.1" height="22" fill="#eed7e5"/>
    <rect x="560" y="68" width="10.1" height="11" fill="#f3d8e0"/>
    <rect x="262.4" y="90" width="10.1" height="22" fill="#5f636d"/>
    <rect x="272" y="90" width="10.1" height="22" fill="#5f636d"/>
    <rect x="281.6" y="101" width="10.1" height="11" fill="#5f636d"/>
    <rect x="310.4" y="90" width="10.1" height="22" fill="#5f636d"/>
    <rect x="339.2" y="90" width="10.1" height="22" fill="#5f636d"/>
    <rect x="348.8" y="90" width="10.1" height="11" fill="#5f636d"/>
    <rect x="358.4" y="90" width="10.1" height="22" fill="#5f636d"/>
    <rect x="377.6" y="90" width="10.1" height="22" fill="#97868b"/>
    <rect x="387.2" y="90" width="10.1" height="11" fill="#978787"/>
    <rect x="396.8" y="90" width="10.1" height="22" fill="#978884"/>
    <rect x="416" y="90" width="10.1" height="22" fill="#978c7f"/>
    <rect x="425.6" y="101" width="10.1" height="11" fill="#968f7e"/>
    <rect x="435.2" y="90" width="10.1" height="22" fill="#96927d"/>
    <rect x="454.4" y="90" width="10.1" height="22" fill="#8d9382"/>
    <rect x="464" y="90" width="10.1" height="22" fill="#889385"/>
    <rect x="473.6" y="101" width="10.1" height="11" fill="#85928a"/>
    <rect x="492.8" y="90" width="10.1" height="22" fill="#838f94"/>
    <rect x="512" y="90" width="10.1" height="11" fill="#878a96"/>
    <rect x="521.6" y="90" width="10.1" height="22" fill="#8a8795"/>
    <rect x="550.4" y="90" width="10.1" height="22" fill="#94858e"/>
    <text x="204.8" y="172" textLength="57.6" lengthAdjust="spacingAndGlyphs" xml:space="preserve" fill="#f8f6f2" font-weight="600">Skills</text>
    <text x="204.8" y="194" textLength="249.6" lengthAdjust="spacingAndGlyphs" xml:space="preserve" fill="#7a8090">Public and private skills.</text>
    <text x="204.8" y="238" textLength="96" lengthAdjust="spacingAndGlyphs" xml:space="preserve" fill="#9aa0b0">bairon.eth</text>
    <text x="310.4" y="238" textLength="163.2" lengthAdjust="spacingAndGlyphs" xml:space="preserve" fill="#7a8090">· #45744 · base ·</text>
    <text x="204.8" y="260" textLength="153.6" lengthAdjust="spacingAndGlyphs" xml:space="preserve" fill="#f0eee8">agent.bairon.eth</text>
    <text x="233.6" y="304" textLength="67.2" lengthAdjust="spacingAndGlyphs" xml:space="preserve" fill="#9aa0b0" font-weight="600">Catalog</text>
    <text x="233.6" y="326" textLength="9.6" lengthAdjust="spacingAndGlyphs" xml:space="preserve" fill="#f0eee8">&gt;</text>
    <text x="252.8" y="326" textLength="9.6" lengthAdjust="spacingAndGlyphs" xml:space="preserve" fill="#f3d8e0">c</text>
    <text x="262.4" y="326" textLength="9.6" lengthAdjust="spacingAndGlyphs" xml:space="preserve" fill="#f3ded1">a</text>
    <text x="272" y="326" textLength="9.6" lengthAdjust="spacingAndGlyphs" xml:space="preserve" fill="#f2e8cb">l</text>
    <text x="281.6" y="326" textLength="9.6" lengthAdjust="spacingAndGlyphs" xml:space="preserve" fill="#e3edd3">e</text>
    <text x="291.2" y="326" textLength="9.6" lengthAdjust="spacingAndGlyphs" xml:space="preserve" fill="#d5eae5">n</text>
    <text x="300.8" y="326" textLength="9.6" lengthAdjust="spacingAndGlyphs" xml:space="preserve" fill="#d7e1f2">d</text>
    <text x="310.4" y="326" textLength="9.6" lengthAdjust="spacingAndGlyphs" xml:space="preserve" fill="#e4d6ee">a</text>
    <text x="320" y="326" textLength="9.6" lengthAdjust="spacingAndGlyphs" xml:space="preserve" fill="#f3d8e0">r</text>
    <text x="348.8" y="326" textLength="57.6" lengthAdjust="spacingAndGlyphs" xml:space="preserve" fill="#9aa0b0">Public</text>
    <text x="252.8" y="348" textLength="57.6" lengthAdjust="spacingAndGlyphs" xml:space="preserve">coding</text>
    <text x="329.6" y="348" textLength="182.4" lengthAdjust="spacingAndGlyphs" xml:space="preserve" fill="#7a8090">Private  ·  3 files</text>
    <text x="252.8" y="370" textLength="48" lengthAdjust="spacingAndGlyphs" xml:space="preserve">email</text>
    <text x="320" y="370" textLength="182.4" lengthAdjust="spacingAndGlyphs" xml:space="preserve" fill="#7a8090">Private  ·  2 files</text>
    <text x="252.8" y="392" textLength="86.4" lengthAdjust="spacingAndGlyphs" xml:space="preserve">summarize</text>
    <text x="358.4" y="392" textLength="172.8" lengthAdjust="spacingAndGlyphs" xml:space="preserve" fill="#7a8090">Public  ·  5 files</text>
    <text x="252.8" y="414" textLength="96" lengthAdjust="spacingAndGlyphs" xml:space="preserve">web-search</text>
    <text x="368" y="414" textLength="57.6" lengthAdjust="spacingAndGlyphs" xml:space="preserve" fill="#7a8090">Public</text>
    <text x="252.8" y="458" textLength="172.8" lengthAdjust="spacingAndGlyphs" xml:space="preserve">Open Skills Folder</text>
    <text x="252.8" y="480" textLength="38.4" lengthAdjust="spacingAndGlyphs" xml:space="preserve">Back</text>
    <text x="204.8" y="524" textLength="182.4" lengthAdjust="spacingAndGlyphs" xml:space="preserve" fill="#7a8090">↵ select · esc back</text>
  </g>
  <defs>
    <linearGradient id="wmShine" gradientUnits="userSpaceOnUse" x1="0" y1="68" x2="0" y2="112">
      <stop offset="0" stop-color="#ffffff" stop-opacity="0.4"/>
      <stop offset="0.5" stop-color="#ffffff" stop-opacity="0"/>
    </linearGradient>
    <clipPath id="wmShineClip">
      <rect x="262.4" y="68" width="10.1" height="22"/>
      <rect x="272" y="68" width="10.1" height="11"/>
      <rect x="281.6" y="68" width="10.1" height="11"/>
      <rect x="300.8" y="68" width="10.1" height="11"/>
      <rect x="310.4" y="68" width="10.1" height="22"/>
      <rect x="320" y="68" width="10.1" height="11"/>
      <rect x="339.2" y="68" width="10.1" height="22"/>
      <rect x="358.4" y="68" width="10.1" height="22"/>
      <rect x="377.6" y="79" width="10.1" height="11"/>
      <rect x="387.2" y="68" width="10.1" height="11"/>
      <rect x="396.8" y="68" width="10.1" height="22"/>
      <rect x="416" y="68" width="10.1" height="22"/>
      <rect x="425.6" y="68" width="10.1" height="11"/>
      <rect x="435.2" y="68" width="10.1" height="11"/>
      <rect x="454.4" y="68" width="10.1" height="22"/>
      <rect x="464" y="68" width="10.1" height="11"/>
      <rect x="473.6" y="68" width="10.1" height="11"/>
      <rect x="492.8" y="68" width="10.1" height="22"/>
      <rect x="502.4" y="79" width="10.1" height="11"/>
      <rect x="521.6" y="68" width="10.1" height="22"/>
      <rect x="540.8" y="68" width="10.1" height="11"/>
      <rect x="550.4" y="68" width="10.1" height="22"/>
      <rect x="560" y="68" width="10.1" height="11"/>
      <rect x="262.4" y="90" width="10.1" height="22"/>
      <rect x="272" y="90" width="10.1" height="22"/>
      <rect x="281.6" y="101" width="10.1" height="11"/>
      <rect x="310.4" y="90" width="10.1" height="22"/>
      <rect x="339.2" y="90" width="10.1" height="22"/>
      <rect x="348.8" y="90" width="10.1" height="11"/>
      <rect x="358.4" y="90" width="10.1" height="22"/>
      <rect x="377.6" y="90" width="10.1" height="22"/>
      <rect x="387.2" y="90" width="10.1" height="11"/>
      <rect x="396.8" y="90" width="10.1" height="22"/>
      <rect x="416" y="90" width="10.1" height="22"/>
      <rect x="425.6" y="101" width="10.1" height="11"/>
      <rect x="435.2" y="90" width="10.1" height="22"/>
      <rect x="454.4" y="90" width="10.1" height="22"/>
      <rect x="464" y="90" width="10.1" height="22"/>
      <rect x="473.6" y="101" width="10.1" height="11"/>
      <rect x="492.8" y="90" width="10.1" height="22"/>
      <rect x="512" y="90" width="10.1" height="11"/>
      <rect x="521.6" y="90" width="10.1" height="22"/>
      <rect x="550.4" y="90" width="10.1" height="22"/>
    </clipPath>
  </defs>
  <rect x="262.4" y="68" width="307.7" height="44" fill="url(#wmShine)" clip-path="url(#wmShineClip)"/>
</svg>